<?xml version="1.0" encoding="UTF-8" standalone="no"?>
<svg xmlns="http://www.w3.org/2000/svg"
     xmlns:svg="http://www.w3.org/2000/svg"
     version="1.1"
     width="66.2603mm" height="66.2603mm"
     viewBox="0 0 250 250">
  <path id="Auswahl"
        fill="none" stroke="black" stroke-width="1"
        d="M 118.00,8.21
           C 118.00,8.21 129.00,8.21 129.00,8.21
             142.15,8.16 159.86,11.97 172.00,17.01
             185.82,22.75 199.34,31.49 210.00,42.01
             250.15,81.66 256.69,147.62 224.23,194.00
             212.18,211.22 197.72,223.39 179.00,232.75
             161.19,241.66 142.84,245.23 123.00,245.00
             111.78,244.87 96.54,241.81 86.00,237.95
             70.89,232.41 56.78,223.89 45.00,212.91
             5.03,175.68 -2.66,115.28 23.31,68.00
             36.92,43.23 61.21,23.28 88.00,14.35
             98.70,10.79 107.10,9.98 118.00,8.21 Z
           M 128.00,91.00
           C 128.00,91.00 108.00,103.33 108.00,103.33
             108.00,103.33 74.00,126.00 74.00,126.00
             74.00,126.00 74.00,128.00 74.00,128.00
             74.00,128.00 108.00,150.67 108.00,150.67
             108.00,150.67 128.00,163.00 128.00,163.00
             128.00,163.00 128.00,153.00 128.00,153.00
             128.14,145.57 130.04,145.05 137.00,145.00
             137.00,145.00 190.00,145.00 190.00,145.00
             190.00,145.00 190.00,109.00 190.00,109.00
             190.00,109.00 136.00,109.00 136.00,109.00
             126.38,108.82 128.00,105.04 128.00,91.00 Z" />
</svg>
